<?xml version="1.0" encoding="UTF-8" standalone="no"?>
<!DOCTYPE svg PUBLIC "-//W3C//DTD SVG 1.1//EN" "http://www.w3.org/Graphics/SVG/1.1/DTD/svg11.dtd">
<svg width="100%" height="100%" viewBox="0 0 86 86" version="1.1" xmlns="http://www.w3.org/2000/svg" xmlns:xlink="http://www.w3.org/1999/xlink" xml:space="preserve" xmlns:serif="http://www.serif.com/" style="fill-rule:evenodd;clip-rule:evenodd;stroke-linejoin:round;stroke-miterlimit:2;">
    <g transform="matrix(0.24,0,0,0.24,0,0)">
        <g transform="matrix(1.16556,0,0,1.16556,-44.2913,-46.6225)">
            <circle cx="190" cy="192" r="152" style="fill:white;"/>
        </g>
        <g transform="matrix(2.6958,0,0,2.6958,42.2406,42.2406)">
            <path d="M88.4,31.3C92.3,31.3 95.1,28.5 95.1,24.7C95.1,20.9 92.3,17.9 88.4,17.9L11.7,17.9C7.9,17.9 4.9,20.9 4.9,24.7C4.9,28.5 7.9,31.3 11.7,31.3L88.4,31.3ZM11.7,68.7C7.9,68.7 4.9,71.7 4.9,75.4C4.9,79.1 7.9,82.2 11.7,82.2L88.5,82.2C92.4,82.2 95.2,79.1 95.2,75.4C95.2,71.7 92.4,68.7 88.5,68.7L11.7,68.7ZM11.7,43.2C7.9,43.2 4.9,46.2 4.9,50C4.9,53.8 7.9,56.8 11.7,56.8L88.5,56.8C92.4,56.8 95.2,53.8 95.2,50C95.2,46.2 92.4,43.2 88.5,43.2L11.7,43.2Z" style="fill:rgb(51,51,51);fill-rule:nonzero;"/>
        </g>
    </g>
</svg>
