<?xml version="1.0" encoding="UTF-8" standalone="no"?>
<!DOCTYPE svg PUBLIC "-//W3C//DTD SVG 1.1//EN" "http://www.w3.org/Graphics/SVG/1.1/DTD/svg11.dtd">
<svg width="100%" height="100%" viewBox="0 0 86 86" version="1.1" xmlns="http://www.w3.org/2000/svg" xmlns:xlink="http://www.w3.org/1999/xlink" xml:space="preserve" xmlns:serif="http://www.serif.com/" style="fill-rule:evenodd;clip-rule:evenodd;stroke-linejoin:round;stroke-miterlimit:2;">
    <g transform="matrix(0.24,0,0,0.24,0,0)">
        <g transform="matrix(1.16556,0,0,1.16556,-44.2913,-46.6225)">
            <circle cx="190" cy="192" r="152" style="fill:white;"/>
        </g>
        <path d="M19.277,257.563L28.45,257.563C33.536,256.537 44.817,251.836 56.021,230.349C70.648,202.185 93.442,222.149 93.442,222.149C79.625,223.348 78.971,236.184 81.46,243.809C82.843,248.025 85.864,250.935 89.146,253.082L136.883,179.391L94.076,151.68C91.027,149.704 88.815,146.718 87.789,143.232L67.824,74.253C65.508,66.27 70.112,57.931 78.095,55.611C86.125,53.451 94.433,57.899 96.737,65.882L115.143,129.475L153.249,154.152L153.249,154.136L172.28,166.475L225.883,201.188L270.662,247.324C274.365,243.341 278.304,237.943 282.239,230.349C296.914,202.185 319.708,222.149 319.708,222.149C305.875,223.348 305.237,236.184 307.726,243.809C310.699,252.834 320.874,256.317 325.98,257.563L335.053,257.563C328.206,270.974 319.698,283.401 309.801,294.57C306.582,292.393 303.705,289.36 302.338,285.15C299.785,277.371 300.454,264.223 314.52,262.977C314.52,262.977 291.334,242.487 276.366,271.396C265.07,293.445 253.54,298.222 248.343,299.264L243.846,299.264C238.665,298.002 228.302,294.439 225.284,285.15C222.716,277.371 223.401,264.223 237.467,262.977C237.467,262.977 214.236,242.487 199.297,271.396C187.952,293.445 176.471,298.222 171.241,299.264L167.523,299.264C162.309,298.002 151.93,294.439 148.912,285.15C146.376,277.371 147.029,264.223 161.127,262.977C161.127,262.977 137.864,242.487 122.957,271.396C111.597,293.445 100.131,298.222 94.917,299.264L90.389,299.264C85.24,298.002 74.845,294.439 71.811,285.15C69.274,277.371 69.96,264.223 84.057,262.977C84.057,262.977 60.763,242.487 45.887,271.396C42.888,277.202 39.883,281.81 36.989,285.468C30.258,276.772 24.318,267.435 19.277,257.563ZM186.282,124.51C196.645,108.5 218.057,103.924 234.051,114.303C250.06,124.682 254.636,146.061 244.273,162.087C233.894,178.097 212.499,182.657 196.489,172.294C180.479,161.915 175.903,140.52 186.282,124.51Z"/>
    </g>
</svg>
