<?xml version="1.0" encoding="UTF-8" standalone="no"?>
<!DOCTYPE svg PUBLIC "-//W3C//DTD SVG 1.1//EN" "http://www.w3.org/Graphics/SVG/1.1/DTD/svg11.dtd">
<svg width="100%" height="100%" viewBox="0 0 86 86" version="1.1" xmlns="http://www.w3.org/2000/svg" xmlns:xlink="http://www.w3.org/1999/xlink" xml:space="preserve" xmlns:serif="http://www.serif.com/" style="fill-rule:evenodd;clip-rule:evenodd;stroke-linejoin:round;stroke-miterlimit:2;">
    <g transform="matrix(0.24,0,0,0.24,0,0)">
        <g transform="matrix(1.16556,0,0,1.16556,-44.2913,-46.6225)">
            <circle cx="190" cy="192" r="152" style="fill:white;"/>
        </g>
        <g transform="matrix(3.54211,0,0,3.54211,177.099,177.106)">
            <g transform="matrix(1,0,0,1,-49.998,-50)">
                <clipPath id="_clip1">
                    <rect x="0" y="0" width="99.996" height="100"/>
                </clipPath>
                <g clip-path="url(#_clip1)">
                    <g>
                        <path d="M93.917,71.206C91.61,75.965 88.556,80.296 84.898,84.041L78.54,77.684C81.656,74.473 84.167,70.83 86.019,66.892L86.018,66.892C88.388,61.848 89.675,56.32 89.761,50.594L98.776,50.594C98.684,57.972 96.946,64.958 93.917,71.206L95.007,71.799C98.266,65.086 99.996,57.673 99.996,49.991C99.996,43.458 98.743,37.121 96.365,31.241C93.885,25.101 90.175,19.462 85.351,14.637C80.508,9.795 74.844,6.077 68.677,3.595L68.675,3.6C62.816,1.242 56.503,0 49.998,0C41.96,0 34.365,1.917 27.63,5.302L28.18,6.354C34.697,3.088 41.908,1.309 49.396,1.219L49.396,10.236C43.289,10.327 37.518,11.809 32.371,14.364L32.918,15.413C37.989,12.903 43.586,11.528 49.396,11.439L49.396,19.603C44.854,19.693 40.557,20.785 36.711,22.662L36.974,23.164L36.711,22.661C33.841,24.062 31.22,25.898 28.941,28.089L23.158,22.307C26.076,19.475 29.37,17.168 32.917,15.413L32.37,14.364C28.657,16.208 25.266,18.609 22.319,21.468L15.931,15.081C19.593,11.506 23.725,8.586 28.179,6.354L27.629,5.302C17.895,10.194 9.97,18.166 5.144,27.939L5.709,28.244L5.144,27.939C1.856,34.597 0,42.083 0,49.996C0,54.837 0.691,59.567 2.012,64.088L3.193,63.791C1.951,59.556 1.274,55.128 1.219,50.599L10.234,50.599C10.289,54.376 10.872,58.067 11.939,61.588L13.108,61.294C12.063,57.866 11.494,54.275 11.438,50.599L19.602,50.599C19.625,51.801 19.738,52.987 19.899,54.161C19.326,54.224 18.783,54.41 18.783,54.41L18.54,55.244C17.986,55.346 17.638,56.251 17.638,56.251C17.184,56.404 16.827,56.965 16.978,57.119C17.129,57.272 16.7,57.327 16.7,57.327L16.7,58.473L16.457,58.821L16.526,60.036C16.829,60.036 16.769,60.626 16.769,60.626C16.265,60.678 16.352,61.321 16.352,61.321L15.31,61.703L15.102,61.98L13.783,61.946L13.444,62.284C13.334,61.956 13.213,61.63 13.111,61.297L11.942,61.592C11.978,61.712 12.023,61.827 12.061,61.946L10.555,61.946L10.451,61.703L9.965,61.599L9.896,61.009L9.132,61.078L8.993,61.39L8.194,61.424C8.245,61.937 7.391,62.704 7.292,62.5C7.19,62.295 6.623,61.734 6.875,61.633C7.127,61.529 7.778,61.424 7.778,61.424L7.778,61.077L5.938,61.008L5.73,61.32L4.966,61.389L4.966,62.187L4.619,62.291C4.367,62.444 4.654,63.02 4.654,63.02C5.008,63.377 4.619,63.922 4.619,63.922C4.316,64.23 4.862,64.825 4.862,64.825C5.266,64.927 4.619,65.207 4.619,65.207C4.718,65.72 5,65.867 5,65.867C4.696,66.38 5.208,66.666 5.208,66.666L5.277,67.534L5.624,67.742L5.624,68.298L5.832,68.645L6.631,68.645L6.561,67.361C5.855,66.542 7.169,66.361 7.221,66.667C7.272,66.974 7.846,67.118 7.846,67.118C7.947,67.887 8.81,68.337 9.061,67.569C9.313,66.801 9.5,67.281 9.651,67.638C9.802,67.996 10.762,68.854 10.762,68.854L11.526,68.854L11.63,69.583C12.487,69.531 12.735,69.622 13.088,70.799C13.442,71.975 14.407,72.292 14.407,72.292L15.101,72.222C15.101,71.61 15.795,72.332 15.795,72.639C15.795,72.945 17.149,74.132 17.149,74.132L18.538,74.444L18.824,74.673C19.65,75.713 20.518,76.725 21.454,77.69L15.079,84.066C9.441,78.284 5.411,71.347 3.196,63.793L2.015,64.09C4.339,72.042 8.626,79.331 14.647,85.352C18.725,89.43 23.386,92.713 28.439,95.133L29.037,94.071C24.255,91.793 19.831,88.72 15.934,84.916L22.309,78.542C25.621,81.758 29.399,84.321 33.484,86.189L34.079,85.134C30.087,83.322 26.395,80.824 23.161,77.69L24.341,76.511C24.403,76.624 24.455,76.763 24.479,76.943C24.579,77.711 24.93,77.568 24.93,77.568L27.812,77.499L28.819,76.631L31.388,76.596C32.7,76.545 31.883,74.721 31.631,74.721C31.48,74.603 31.455,74.358 31.48,74.086C33.534,75.671 35.754,76.988 38.11,77.99L38.705,76.936C35.88,75.75 33.257,74.09 30.895,72.039L29.816,71.042L36.163,64.695C38.211,66.627 40.596,68.083 43.181,69.009C43.887,69.262 44.611,69.46 45.344,69.633C45.215,69.747 45.143,69.854 45.173,69.929C45.274,70.185 44.756,70.45 44.756,70.45L44.304,70.589L43.992,71.041L43.402,71.249L43.298,72.325L42.986,72.533L42.986,72.985L42.639,73.089L42.639,73.367L42.118,73.401L42.43,74.165L42.847,74.374C43.553,74.476 43.229,75.346 43.229,75.346L43.646,75.415L43.854,75.971L44.236,76.77C44.388,77.385 44.867,77.238 45.069,77.187C45.271,77.137 45.451,77.812 45.451,77.812L47.465,77.846C47.465,77.846 47.39,78.057 47.743,78.158C47.938,78.215 48.721,78.275 49.403,78.294L49.403,79.193C45.673,79.12 42.058,78.346 38.709,76.941L38.114,77.996C41.646,79.496 45.461,80.322 49.403,80.397L49.403,88.561C44.031,88.479 38.843,87.298 34.084,85.139L33.489,86.194C38.429,88.452 43.821,89.683 49.403,89.766L49.403,98.781C42.242,98.695 35.332,97.072 29.043,94.075L28.444,95.137C35.088,98.318 42.416,100 50.003,100C57.961,100 65.63,98.14 72.531,94.648L71.962,93.544C65.526,96.804 58.281,98.687 50.606,98.781L50.606,89.766C54.281,89.712 57.87,89.15 61.304,88.134L62.185,88.401L62.463,89.234L62.845,89.165L63.157,88.922L64.372,88.853L64.963,88.297L65.622,88.193L70.335,84.184C72.969,82.614 75.44,80.735 77.694,78.547L84.052,84.905C80.505,88.367 76.426,91.283 71.962,93.544L72.532,94.648C77.209,92.281 81.541,89.17 85.355,85.356C89.367,81.345 92.603,76.768 95.009,71.81L95.006,71.8L93.917,71.206ZM76.691,61.799C75.314,64.899 73.418,67.716 71.104,70.139C71.003,69.116 70.76,67.986 70.76,67.986L70.378,67.778L70.482,66.562L69.926,66.562L69.023,67.743L68.914,68.058L68.393,67.537L68.642,67.256L68.608,66.666L68.955,66.354L68.955,65.833L69.267,65.729L69.302,64.618L69.579,64.549L69.579,62.084L68.815,61.39C68.765,61.646 67.947,61.633 67.947,61.633C67.947,61.633 67.752,61.98 67.6,61.98C67.448,61.98 67.806,62.47 67.704,62.779C67.604,63.085 67.183,63.056 67.183,63.056L66.419,63.265L66.245,63.542L65.412,63.542L65.36,63.048C65.425,62.97 65.495,62.895 65.56,62.816L66.245,62.605L66.731,62.362L66.974,61.841C67.024,61.33 67.633,61.39 67.633,61.39C67.633,61.39 68.799,60.426 68.849,59.966C68.901,59.505 69.324,58.195 70.03,58.195L71.314,58.195C71.818,57.99 71.696,57.327 71.696,57.327L72.321,57.223L72.425,57.605C72.425,57.605 73.332,57.69 73.432,57.536C73.534,57.384 73.735,57.035 73.988,57.189C74.239,57.342 75.064,56.841 75.064,56.841C75.114,56.483 76.383,56.633 76.383,56.633L76.522,56.147C76.522,56.147 75.668,55.001 75.515,55.001C75.364,55.001 74.54,54.259 74.439,54.515C73.632,54.311 73.71,53.196 73.71,53.196L73.398,52.467C73.398,52.057 72.647,51.185 72.496,51.287C72.182,51.053 72.1,50.808 72.118,50.597L79.186,50.597C79.106,54.574 78.219,58.359 76.691,61.799ZM49.095,53.021L49.303,52.778L49.199,52.431C48.795,52.277 48.981,51.912 49.234,52.014C49.486,52.117 48.887,51.563 48.887,51.563C48.585,51.819 48.331,51.251 48.331,51.251L47.567,51.251L47.567,50.522L47.463,49.863L46.734,49.516L46.178,50L46.074,50.729L46.074,51.18L45.553,51.284L45.449,52.673L45.067,52.846L45.102,53.332L44.546,53.506L43.99,53.645L43.886,54.305L43.504,54.582L43.296,55.173L43.057,56.644C42.338,55.893 41.758,55.046 41.322,54.132C41.411,53.773 41.421,53.437 41.421,53.437C40.968,53.233 41.229,52.51 41.733,53.125C42.237,53.738 41.421,51.909 41.421,51.909L41.004,51.562L40.506,51.496C40.429,51.004 40.379,50.505 40.379,49.996C40.379,49.783 40.397,49.572 40.41,49.36C40.556,49.233 40.725,49.305 40.725,49.305L41.003,49.548L41.489,49.895L41.524,50.207L41.212,50.381L41.177,50.798L41.316,51.354L41.733,51.354C41.884,50.535 42.924,50.529 43.226,51.042L43.538,50.313C42.832,49.955 43.544,49.397 43.746,49.653C43.948,49.909 44.406,48.993 44.406,48.993C44.406,48.993 44.501,49.093 44.545,49.132C44.529,49.089 44.495,49.008 44.406,48.855C44.052,48.24 44.649,47.917 44.649,47.917C44.549,47.303 45.309,47.396 45.309,47.396L45.344,46.598L44.649,46.528C44.499,47.245 43.895,46.647 44.198,46.493C44.501,46.339 44.788,46.007 44.788,46.007L44.788,45.521L45.1,45.417L45.169,44.896L45.9,44.896L46.56,44.584L46.734,44.341L47.428,44.271L48.435,43.368L48.331,42.951C47.726,42.951 48.331,42.5 48.331,42.5L48.435,41.736L47.879,41.736L47.78,40.647C48.467,40.485 49.174,40.392 49.896,40.385L49.997,41.598L49.441,41.424L49.094,41.424L48.921,41.112L48.643,41.077L48.643,42.188L48.921,42.431L49.199,42.708L49.685,42.743L49.789,43.368L51.039,43.403L51.212,43.68L51.977,43.715L53.435,45.208L53.331,45.66L53.088,45.833C53.191,46.191 52.429,45.972 52.429,45.972L52.429,46.284L52.776,46.319L53.124,46.527L53.645,45.659C54.2,45.301 54.426,45.803 54.478,46.11C54.529,46.417 54.236,46.388 54.236,46.388L54.236,47.082L54.548,47.186C55.053,47.8 54.339,48.158 54.339,48.158L54.2,48.679C54.048,49.139 53.471,49.026 53.471,49.026L53.263,49.338L52.673,49.512L53.853,49.651C53.967,49.241 54.291,49.133 54.444,49.339C54.595,49.544 54.583,49.929 54.583,49.929L54.895,49.964L54.826,50.519L55.138,50.623L55.138,52.255L55.486,52.672C56.09,52.417 56.102,52.815 55.798,53.019C55.497,53.223 55.694,54.165 55.694,54.165L55.451,54.408L55.451,54.825L55.139,55.033L55.139,55.589C54.634,55.333 54.041,55.435 53.889,55.589C53.436,55.282 52.465,55.402 52.465,55.658C52.767,56.068 52.118,56.144 52.118,56.144L51.77,56.561C52.023,57.073 51.527,57.117 51.527,57.117L51.527,58.089L50.9,58.68L50.946,59.568C50.634,59.598 50.318,59.616 49.997,59.616C47.633,59.616 45.407,58.762 43.65,57.212C43.684,57.194 43.717,57.168 43.747,57.119C43.999,56.71 44.407,56.667 44.407,56.667L44.546,56.32L45.9,56.354C46.001,55.791 46.664,55.995 46.664,56.25C46.664,56.505 47.185,56.319 47.185,56.319L47.532,55.763L48.088,55.763L48.123,55.138L48.401,54.964L48.401,54.062C49.208,53.807 49.095,53.021 49.095,53.021ZM29.873,48.733C29.792,48.89 29.721,48.993 29.721,48.993C29.662,49.082 29.631,49.231 29.613,49.393L27.698,49.393L27.707,49.34L27.151,49.305C26.546,48.946 26.839,47.604 26.839,47.604C27.797,46.17 28.922,46.979 28.922,46.979L29.616,46.944C29.803,47.07 29.91,47.218 29.988,47.372C29.93,47.821 29.901,48.277 29.873,48.733ZM40.623,41.945C40.421,42.405 39.929,41.876 39.929,41.876C39.829,41.569 39.096,41.876 39.096,41.876C39.096,42.439 38.158,41.633 38.158,41.633L36.387,40.348C35.378,39.427 33.867,40.613 33.818,40.869C33.845,41.256 33.5,41.263 33.175,41.189C33.966,39.683 34.964,38.277 36.157,37.008L41.112,41.963L40.623,41.945ZM38.366,51.354L38.539,51.042L38.631,50.599L39.204,50.599C39.224,50.964 39.267,51.325 39.323,51.68L38.99,51.771L38.886,51.563L38.747,52.119L37.844,52.119L37.809,51.494L38.366,51.354ZM61.076,22.973C63.527,23.977 65.834,25.327 67.948,26.981C68,27.338 68.4,27.501 68.4,27.501L68.592,27.518C68.775,27.669 68.949,27.83 69.128,27.986L69.128,28.37C69.481,28.281 70.024,28.683 70.122,29.026L63.839,35.31C62.045,33.62 59.995,32.293 57.78,31.368C55.528,30.427 53.102,29.9 50.6,29.826L50.6,20.811C54.25,20.884 57.788,21.626 61.076,22.973ZM53.886,60.416L54.129,60.52L53.678,60.867L53.261,61.319L52.775,61.179L52.15,61.11L51.977,60.763L51.594,60.728L51.56,61.422L51.317,61.734L50.692,62.359C51.335,62.359 50.909,62.708 50.605,62.85L50.605,60.794C51.257,60.758 51.896,60.661 52.521,60.513C52.589,60.576 52.636,60.622 52.636,60.622L53.087,60.622L53.107,60.353C53.343,60.283 53.577,60.201 53.807,60.115C53.818,60.26 53.886,60.416 53.886,60.416ZM57.34,32.489C59.404,33.354 61.313,34.589 62.987,36.161L62.658,36.491C62.487,36.329 61.941,36.222 61.941,36.043C61.941,35.889 61.679,35.717 61.558,35.765C61.518,35.781 61.476,35.827 61.489,35.904C61.539,36.211 61.14,36.353 61.038,36.251C60.938,36.148 60.621,36.563 60.621,36.563C60.621,36.716 60.528,36.928 60.83,36.98C61.134,37.03 61.683,36.777 61.732,37.084C61.75,37.188 61.766,37.277 61.789,37.359L59.822,39.326C59.546,39.343 59.267,39.306 59.267,39.306C59.116,39.767 58.406,39.266 58.607,38.959C58.809,38.652 58.816,38.438 58.816,38.438L58.573,38.403L58.261,38.959C57.555,38.959 57.345,39.362 57.497,39.619C57.648,39.874 57.321,39.574 57.219,39.931C57.119,40.289 57.264,40.298 57.567,40.452C57.87,40.606 57.4,40.613 57.601,40.869C57.733,41.036 58.029,40.983 58.126,41.022L57.755,41.393C57.408,41.509 57.011,41.424 57.011,41.424C57,41.529 56.937,41.602 56.853,41.654C56.041,40.986 55.153,40.441 54.202,40.039C54.358,39.921 54.627,39.939 54.755,39.583C54.958,39.02 55.032,38.09 55.032,38.09C55.032,38.09 54.824,38.071 54.616,38.09C54.407,38.109 54.224,38.171 54.199,38.298C54.149,38.554 53.643,38.715 53.643,38.715C53.643,38.715 53.213,38.857 53.366,39.062C53.517,39.267 53.088,39.374 53.088,39.374C53.088,39.374 53.109,39.512 53.091,39.644C52.287,39.405 51.455,39.254 50.601,39.207L50.601,31.03C52.951,31.104 55.225,31.603 57.34,32.489ZM62.67,39.792C62.318,40.46 61.549,39.723 61.59,39.251L62.913,37.926C62.993,37.935 63.075,37.952 63.156,37.952C63.458,37.952 64.128,37.848 64.128,37.848C64.128,37.848 64.405,37.888 64.645,37.953C64.888,38.247 65.124,38.544 65.347,38.849L64.719,38.75L64.337,38.715L63.573,38.646C62.817,39.159 62.67,39.792 62.67,39.792ZM53.79,58.833C53.494,58.961 53.19,59.075 52.88,59.173L52.88,58.056L53.366,57.5C53.892,57.323 53.818,58.438 53.79,58.833ZM61.315,66.716C61.344,66.696 61.377,66.679 61.406,66.658L62.601,67.256C62.753,67.46 63.4,67.43 63.4,67.43L63.608,67.673C63.608,67.673 64.015,67.608 64.268,67.916C64.519,68.223 65.83,67.985 65.83,67.985L66.177,68.297L66.733,68.505L67.674,68.526L68.25,69.103C67.342,69.526 65.494,69.388 65.378,69.269C65.227,69.116 64.163,68.644 64.163,68.644C64.163,68.644 63.378,67.988 63.225,68.193C63.072,68.398 62.357,67.935 62.357,68.089C62.357,68.242 61.698,67.741 61.698,67.741L60.691,67.359L61.455,67.22L61.315,66.716ZM65.9,40.139C66.051,40.908 66.299,41.216 65.796,41.216C65.29,41.216 65.171,40.799 65.171,40.799C65.171,40.799 64.789,40.664 64.789,40.868C64.789,41.073 64.637,41.462 64.789,41.666C64.939,41.871 64.559,42.202 64.407,42.048C64.258,41.895 63.854,41.403 63.956,41.25C64.056,41.096 63.253,40.153 64.06,40C64.868,39.847 64.035,39.373 64.338,39.271L64.72,39.063L65.136,39.063L65.363,38.87C65.561,39.142 65.752,39.419 65.934,39.702C65.886,39.829 65.867,39.975 65.9,40.139ZM51.109,65.624L52.255,65.381C52.355,64.869 52.88,65.485 52.88,65.485C53.385,65.433 53.47,65.762 53.47,65.762L54.13,65.866C54.684,66.02 54.34,66.081 54.373,66.283C54.423,66.589 54.685,66.491 54.685,66.491L54.789,65.832L55.101,65.866L54.789,65.519L54.234,65.276L53.643,64.998C53.24,64.436 53.726,64.564 54.129,64.616L54.788,64.616C54.788,64.616 55.553,65.61 55.553,65.866C55.553,66.122 55.9,66.18 55.9,66.18L56.351,66.146L56.491,66.493L56.942,66.493L57.116,66.805L58.018,66.805L58.052,66.354L57.219,66.18L57.15,65.694L56.56,65.521C56.358,64.652 56.69,64.381 56.942,64.792L57.254,64.861L57.15,64.097L57.498,63.993L57.394,62.917L57.117,62.813L57.117,62.466L58.366,62.5C58.266,61.834 58.436,61.528 58.436,61.528L58.783,61.528L58.818,61.805L60.38,61.945L60.449,61.945C61.054,62.302 60.755,62.745 60.553,62.847C60.352,62.949 59.998,62.951 59.998,62.951L59.894,63.159L58.575,63.263L58.471,63.784C57.816,63.68 57.555,64.398 57.707,64.756C57.858,65.114 57.707,65.416 57.707,65.416L58.263,65.693L58.992,65.485C59.095,64.973 59.526,64.853 59.93,64.547C60.334,64.24 61,65.109 60.798,65.52C60.775,65.57 60.76,65.603 60.741,65.644C59.968,66.176 59.155,66.653 58.306,67.067C56.969,67.719 55.539,68.199 54.053,68.524C54.036,68.513 54.027,68.505 54.027,68.505L53.471,68.331L53.437,67.567C53.335,67.055 52.379,67.07 52.43,67.428C52.479,67.777 50.702,67.58 50.607,67.569L50.607,66.162L51.109,65.624ZM50.605,77.988C50.937,77.743 51.884,77.729 52.324,78.054C52.878,78.462 53.643,78.227 53.643,78.227L54.18,78.892C53.008,79.062 51.817,79.168 50.605,79.193L50.605,77.988ZM73.085,49.389C73.148,49.301 73.19,49.237 73.19,49.237L73.433,48.543L74.301,48.265L74.405,47.605L73.954,47.57C73.954,47.57 74.465,46.632 74.718,46.632C74.971,46.632 76.617,46.63 76.767,46.528C76.919,46.426 77.218,45.605 77.218,45.452C77.218,45.299 77.624,45.261 77.774,45.209C77.926,45.159 78.298,44.754 78.399,44.549C78.5,44.343 78.149,43.059 77.948,43.264C77.746,43.469 77.288,43.576 77.288,43.576L77.115,44.132L76.872,44.34C76.872,44.34 76.922,44.502 76.872,44.861C76.822,45.219 76.386,45.417 76.386,45.417L76.178,45.66C76.178,45.66 74.969,45.725 74.824,45.66C74.371,45.455 74.66,44.845 74.963,44.896C75.265,44.948 74.929,44.028 74.929,44.028L75.311,43.993C75.311,43.993 75.368,43.056 75.519,43.056C75.671,43.056 75.478,42.758 75.276,42.604C75.075,42.451 74.818,41.928 74.617,41.979C74.415,42.03 73.61,41.979 73.61,41.979L73.436,42.291L72.88,42.395C72.88,42.395 72.942,42.8 72.845,42.916C72.541,43.274 71.369,44.021 71.873,42.743L72.047,42.431L72.047,41.979L71.144,41.944C71.144,41.944 70.693,41.767 70.693,41.562C70.693,41.357 70.624,41.11 70.624,41.11L69.582,39.93L68.298,39.791L68.194,39.514L67.465,39.41C67.341,39.348 67.221,39.305 67.102,39.273C66.753,38.716 66.375,38.174 65.97,37.649C65.957,37.61 65.944,37.563 65.937,37.535C65.892,37.352 65.324,36.559 65.025,36.542C64.911,36.414 64.81,36.276 64.692,36.151L70.965,29.879C71.176,30.072 71.147,30.149 71.423,30.349C71.517,30.417 71.609,30.453 71.696,30.466C71.865,30.653 72.034,30.841 72.197,31.031L72.082,31.182C72.082,31.761 72.352,31.596 72.621,31.543C72.707,31.647 72.796,31.751 72.88,31.856C72.904,32.196 72.911,32.672 73.437,32.605L73.45,32.605C74.11,33.493 74.72,34.412 75.271,35.362L75.277,35.383L75.283,35.383C75.37,35.532 75.453,35.683 75.537,35.834C75.438,35.938 75.382,36.043 75.382,36.043L74.549,36.147L74.549,36.98L74.166,37.119L74.201,37.64L74.757,37.571C74.757,37.571 74.778,38.208 74.931,37.953C75.082,37.697 76.318,37.998 76.215,38.613C76.174,38.865 77.478,39.53 77.326,40.349C77.425,40.364 77.501,40.396 77.567,40.432C77.81,41.135 78.03,41.845 78.219,42.567L78.124,42.745C78.124,42.745 78.196,42.787 78.293,42.873C78.462,43.547 78.614,44.225 78.734,44.912C78.685,45.437 78.559,45.922 78.296,46.078C77.691,46.436 78.331,46.217 78.331,46.217L78.227,47.363C78.379,47.875 78.631,47.619 78.783,47.363C78.863,47.227 78.949,47.15 79.042,47.071C79.118,47.839 79.175,48.611 79.191,49.391L73.085,49.391L73.085,49.389ZM79.996,44.653C79.846,44.5 80.17,43.785 80.17,43.785C80.17,43.785 80.372,43.361 80.17,42.952C79.969,42.542 80.191,42.081 80.344,41.876L79.962,41.668L79.545,41.633L79.24,41.68C79.149,41.361 79.038,41.049 78.937,40.733L78.955,40.695L79.198,40.764L79.198,40.452L78.8,40.328C78.738,40.14 78.675,39.951 78.61,39.764L78.538,38.647L78.191,38.404L78.295,37.987L77.879,37.848L78.087,37.154L77.74,36.46L77.226,36.46C76.984,35.973 76.73,35.491 76.461,35.016C76.509,34.988 76.568,34.959 76.662,34.933C76.94,34.856 77.048,34.823 77.079,34.829L77.044,34.308L76.593,33.996L76.419,33.371C76.419,33.371 75.884,33.481 75.934,33.788C75.946,33.861 75.904,33.917 75.83,33.963C75.478,33.398 75.11,32.842 74.722,32.298C74.733,32.274 74.742,32.249 74.754,32.225C74.956,31.867 74.864,31.633 74.511,31.531C74.157,31.428 74.159,31.455 74.06,31.045C73.96,30.636 73.539,30.524 73.539,30.524L73.4,29.899L73.02,30.139C72.825,29.914 72.622,29.695 72.419,29.475L72.602,28.892C72.398,28.85 72.305,28.725 72.25,28.595L73.823,27.021C74.527,27.435 75.049,28.401 74.962,28.58C74.861,28.785 75.553,28.719 75.553,28.719C75.655,27.797 76.51,28.099 76.56,28.407C76.612,28.714 76.768,29.379 76.768,29.379L77.011,29.865L77.393,30.212L77.949,30.142L78.088,30.454L78.748,30.558C78.748,30.558 79.288,31.168 79.338,31.322C79.389,31.475 80.143,31.445 80.345,31.496C80.547,31.547 80.851,31.692 80.901,31.947C80.952,32.203 81.283,32.607 81.283,32.607C81.283,32.607 81.857,32.784 81.908,32.989C81.958,33.194 82.22,33.649 82.22,33.649L82.741,34.066L82.776,34.517L83.332,34.552L83.471,35.177L84.409,35.108L84.895,34.761C85.047,34.678 85.188,34.59 85.318,34.5C85.502,34.919 85.686,35.338 85.854,35.763C87.555,40.052 88.487,44.65 88.559,49.392L80.396,49.392C80.368,47.963 80.213,46.559 79.992,45.171C80.043,44.941 80.079,44.736 79.996,44.653ZM95.249,31.721C97.489,37.269 98.702,43.236 98.777,49.388L89.761,49.388C89.687,44.48 88.724,39.72 86.959,35.284C86.706,34.648 86.435,34.02 86.147,33.398C86.222,33.12 86.364,32.816 86.696,32.918C87.2,33.072 86.87,31.807 86.87,31.807C86.87,31.807 86.161,31.3 86.211,31.043C86.261,30.788 85.501,30.276 85.551,30.071C85.601,29.866 84.911,29.443 84.961,29.238C85.011,29.033 84.579,28.474 84.579,28.474L83.85,27.745L83.746,27.294L83.121,27.224L81.906,25.766L81.975,25.349L81.628,25.279L81.628,24.724L81.28,24.516L80.724,24.481L79.613,23.231L79.509,22.675L78.953,22.675L79.038,21.802L84.913,15.926C89.422,20.543 92.9,25.902 95.249,31.721ZM50.6,1.218C56.74,1.292 62.697,2.503 68.235,4.733L68.237,4.728C74.068,7.077 79.437,10.558 84.063,15.074L78.661,20.477C78.468,20.526 78.265,20.55 78.122,20.488C77.768,20.335 78.295,19.967 78.295,19.967L78.295,19.55L77.983,19.238C77.983,19.238 77.13,19.357 77.081,19.203C77.031,19.049 76.873,18.37 76.873,18.37L76.838,17.502L76.491,17.363L76.421,17.051L75.866,17.12L75.866,16.495L75.554,16.391L75.276,16.252L75.207,15.627L74.096,15.558L73.749,15.072L73.332,14.447L72.082,14.343L71.77,14.031L71.284,13.927L70.937,13.788L70.76,14.03L69.822,14.099L69.753,14.377C69.451,14.53 68.612,14.52 67.974,14.52C66.981,14.017 65.971,13.548 64.94,13.13L64.5,14.251C65.337,14.59 66.156,14.969 66.967,15.367C66.909,15.534 66.841,15.662 66.734,15.662C66.482,15.662 66.595,16.322 66.595,16.322C66.595,16.322 67.261,16.341 67.463,16.391C67.664,16.441 67.636,16.947 67.636,16.947C68.394,16.896 68.71,17.941 68.609,18.197C68.508,18.453 68.921,18.44 68.921,18.44C68.921,18.44 68.919,19.242 68.817,19.447C68.717,19.652 69.449,19.835 69.65,20.141C69.852,20.448 69.558,21.444 69.408,21.495C69.256,21.546 69.804,21.725 69.755,21.981C69.704,22.238 69.913,21.954 69.963,22.363C70.014,22.772 70.137,23.648 70.137,23.648L70.831,23.718C70.934,23.052 72.216,23.016 72.429,23.093C73.286,23.4 73.956,24.73 73.956,25.037C73.956,25.344 73.4,25.384 73.4,25.384L73.424,25.724L71.643,27.505C71.463,27.397 71.282,27.335 71.178,27.398C70.926,27.551 71.039,26.322 71.039,26.322C71.039,26.322 71.496,25.995 71.698,26.148C71.9,26.3 69.984,23.6 69.58,23.855C69.177,24.111 68.246,23.622 68.296,23.161C68.346,22.701 66.49,21.147 66.49,21.147C66.49,21.147 66.147,20.924 65.934,20.939C65.863,20.944 65.821,20.966 65.795,21.043C65.694,21.35 65.492,21.55 65.795,21.703C66.097,21.857 66.032,21.449 66.385,21.807C66.739,22.165 67.401,22.645 67.15,22.953C66.898,23.261 66.594,23.335 66.594,23.335L66.941,23.752L67.497,23.752L67.601,24.62C67.601,24.62 68.212,24.922 68.365,25.28C68.467,25.521 68.474,25.697 68.44,25.854C67.319,24.996 66.144,24.229 64.927,23.542C64.948,23.429 64.952,23.32 64.927,23.231C64.826,22.873 65.335,22.752 65.587,23.162L66.072,23.093L66.176,22.641L65.482,22.086L64.926,22.086C64.926,22.086 64.864,22.483 64.509,22.329C64.155,22.175 64.36,22.242 64.058,22.19C63.791,22.145 63.848,22.69 63.899,22.962C63.119,22.56 62.327,22.185 61.515,21.853C58.088,20.451 54.402,19.681 50.599,19.607L50.599,15.11C50.918,15.114 51.072,15 51.107,14.863C51.157,14.658 51.219,14.601 51.523,14.551C51.825,14.5 51.443,13.875 51.141,13.926C50.917,13.964 50.712,13.895 50.599,13.754L50.599,11.44C55.439,11.514 60.132,12.48 64.498,14.249L64.938,13.128C60.433,11.303 55.592,10.309 50.598,10.235L50.598,1.218L50.6,1.218ZM37.262,23.714C41.006,21.897 45.123,20.892 49.396,20.807L49.396,29.823C46.563,29.907 43.875,30.578 41.449,31.716L42.003,32.774C44.298,31.707 46.803,31.107 49.397,31.027L49.397,39.206C48.337,39.265 47.321,39.484 46.364,39.828L46.319,39.828L46.284,39.272L46.527,39.098L46.11,38.959L45.798,39.376L45.729,39.828L45.208,39.932L45.208,40.175L44.861,40.175L44.861,40.496C44.117,40.899 43.423,41.383 42.798,41.944L37.012,36.158C38.507,34.754 40.19,33.617 42.005,32.775L41.451,31.717C39.499,32.633 37.718,33.85 36.166,35.312L29.785,28.931C32.021,26.781 34.543,25.034 37.262,23.714ZM35.312,36.163C33.99,37.567 32.879,39.166 31.998,40.902C31.771,40.896 31.556,40.938 31.492,41.111C31.341,41.52 30.693,41.423 30.693,41.423L30.589,41.631L30.068,41.735L29.964,42.047L29.374,42.117L30.902,42.082C31.305,42.031 30.737,42.966 30.485,42.915L29.79,42.95L29.512,43.193L28.852,43.193L28.575,43.61L27.603,43.575C27.603,43.575 27.066,44.012 27.117,44.165C27.167,44.318 26.991,44.79 26.839,44.79C26.688,44.79 26.391,45.261 26.492,45.415C26.594,45.568 26.18,46.075 26.18,46.075L26.111,46.596L25.799,46.7L25.799,48.054L25.174,48.471L25.174,49.096L24.899,49.392L20.808,49.392C20.889,45.336 21.799,41.417 23.447,37.827C24.793,34.891 26.634,32.173 28.931,29.781L35.312,36.163ZM24.374,50.902L23.61,51.701L23.714,52.534L23.262,52.674L23.158,53.021L22.984,54.097L23.47,54.166C23.721,54.064 23.672,54.828 23.47,54.931C23.267,55.033 22.715,55.247 23.018,55.452C23.321,55.658 22.22,55.586 22.22,55.278C22.22,54.972 21.607,54.725 21.456,54.827C21.373,54.883 21.259,54.745 21.17,54.606C20.961,53.291 20.833,51.954 20.805,50.599L24.334,50.599L24.374,50.902ZM10.236,49.394L1.219,49.394C1.307,42.031 3.028,34.935 6.19,28.504C8.44,23.926 11.417,19.682 15.079,15.93L21.467,22.318C18.495,25.38 16.012,28.916 14.143,32.801C11.719,37.838 10.325,43.459 10.236,49.394ZM11.439,49.394C11.524,43.756 12.818,38.316 15.188,33.366C16.969,29.645 19.357,26.2 22.307,23.158L28.09,28.94C25.759,31.365 23.831,34.176 22.402,37.263C20.686,40.967 19.689,45.07 19.605,49.394L11.439,49.394ZM20.944,75.346L21.145,75.346C21.396,74.475 22.607,75.386 22.707,75.694C22.746,75.812 22.89,75.963 23.057,76.092L22.309,76.839C21.837,76.353 21.386,75.852 20.944,75.346ZM28.931,70.212C28.52,69.783 28.126,69.344 27.743,68.895C27.818,68.57 28.019,68.229 28.019,68.229C28.674,67.819 27.845,67.153 27.845,67.153C27.947,66.538 27.498,65.834 27.498,65.834C26.591,65.22 26.838,64.028 26.838,64.028L26.838,63.229C26.082,62.513 27.15,62.396 27.15,62.396C27.503,61.783 26.907,61.32 26.907,61.32L26.838,60.66L26.04,60.556L25.936,58.16L24.131,55.556C23.777,55.452 24.027,54.827 24.027,54.827C24.481,54.571 23.923,53.959 23.923,53.959L23.888,52.848L24.93,52.744L25.173,52.327L25.694,52.327L25.624,50.973C25.715,50.734 25.853,50.633 25.992,50.599L26.238,50.599C26.382,50.629 26.492,50.695 26.492,50.695L27.186,50.73L27.257,50.599L29.664,50.599L29.859,51.91L29.234,52.466C28.679,52.774 28.663,53.492 29.269,53.647C29.672,53.697 29.527,54.661 28.922,53.995C28.258,53.995 28.827,54.466 29.026,54.62C29.934,55.081 29.72,54.203 29.72,54.203L30.178,53.836C30.372,54.846 30.638,55.834 30.981,56.794C31.907,59.39 33.365,61.783 35.304,63.839L28.931,70.212ZM36.157,62.985C34.372,61.087 33.022,58.883 32.153,56.496C31.766,55.431 31.486,54.325 31.296,53.197C31.719,53.356 32.186,54.048 32.186,54.166C32.186,54.32 34.2,54.201 34.2,54.201C34.755,54.559 34.964,55.486 34.964,55.486C35.52,54.768 36.69,55.423 35.832,55.833C36.638,56.345 36.631,56.806 36.631,56.806C37.287,56.602 37.291,57.138 37.291,57.291C37.291,57.445 37.499,56.527 37.499,56.527C36.742,55.965 38.489,55.746 37.985,56.77L37.707,57.221L38.193,57.638L38.263,58.819C39.373,58.716 39.061,57.326 39.061,57.326L39.547,57.222C39.547,56.761 39.929,57.014 39.929,57.014C39.686,55.817 40.151,55.305 40.468,55.098C40.871,55.848 41.36,56.556 41.94,57.202L36.157,62.985ZM37.014,63.844L42.797,58.06C44.558,59.64 46.75,60.574 49.098,60.767L49.095,60.798C49.095,60.798 48.903,61.242 49.13,61.319C49.35,61.392 49.3,61.444 49.401,61.553L49.401,61.575L49.269,61.839C49.082,61.585 48.982,62.002 49.095,62.116C49.21,62.231 48.817,62.171 48.817,62.325C48.817,62.478 48.703,62.561 48.817,62.637C48.931,62.713 48.795,62.765 48.644,62.879C48.492,62.994 49.269,63.019 49.269,63.019C49.269,63.019 49.115,62.707 49.304,62.707C49.345,62.707 49.368,62.709 49.401,62.709L49.401,63.207C49.334,63.19 49.272,63.181 49.2,63.158L49.2,63.54L48.783,63.575L49.13,63.991L49.401,64.014L49.401,64.913C49.361,65.543 47.718,65.113 47.568,64.963L47.533,65.865L47.221,65.934L47.291,66.559L47.221,67.427L47.777,67.323L47.777,67.671L49.131,67.74L49.402,67.45L49.402,68.435L48.471,68.539L48.089,68.747L47.916,68.435L47.534,68.435L47.279,68.775C46.084,68.602 44.913,68.331 43.784,67.94C41.288,67.078 38.986,65.696 37.014,63.844ZM50.605,80.397C52.016,80.371 53.407,80.236 54.777,80.02L54.893,80.276L55.761,80.519L56.351,80.658L56.56,81.56L57.011,81.595L57.15,82.151C57.706,82.56 57.011,83.435 57.011,83.435L57.011,84.581L57.393,84.754L57.358,85.171L58.018,85.831L58.782,85.9L60.019,87.226C57.009,88.039 53.858,88.509 50.605,88.56L50.605,80.397ZM70.726,82.475L70.726,82.013C71.634,81.348 71.687,80.17 70.83,80.069C70.18,79.991 70.468,79.302 71.073,79.201L71.421,79.027L71.421,78.576L72.602,77.5L72.602,76.7L70.067,74.582C69.547,74.39 69.526,73.749 69.717,73.127C70.175,72.736 70.633,72.343 71.071,71.922L73.292,74.142C73.191,74.523 72.837,74.735 72.637,74.582C72.715,74.669 72.915,74.894 72.985,75.033C73.085,75.237 73.403,75.237 73.506,75.033C73.573,74.895 73.568,74.648 73.587,74.436L74.621,75.469C74.484,75.737 74.352,76.006 74.408,76.179L74.86,76.387L74.929,77.255C75.266,77.598 76.02,77.58 76.626,77.475L76.831,77.68C74.971,79.483 72.917,81.076 70.726,82.475ZM77.676,76.817L77.468,76.609C77.437,76.054 77.392,75.311 77.392,75.311L77.115,75.033L77.08,73.749C77.256,73.167 76.394,72.348 76.107,72.291C76.066,72.282 76.051,72.299 76.038,72.325C75.937,72.529 75.274,72.398 75.274,72.603C75.274,72.806 74.864,73.807 75.066,74.165C75.079,74.189 75.074,74.202 75.083,74.223L71.916,71.058C74.39,68.487 76.351,65.554 77.768,62.385L77.767,62.385C79.407,58.713 80.313,54.725 80.393,50.594L88.556,50.594C88.469,56.198 87.176,61.513 84.934,66.299L84.935,66.299C83.105,70.203 80.644,73.757 77.676,76.817Z" style="fill:rgb(1,1,1);fill-rule:nonzero;"/>
                        <path d="M58.574,4.03L58.643,3.995L59.199,3.613L59.06,3.37L58.574,3.683L58.261,3.475L58.087,3.718L58.504,3.995L58.574,4.03Z" style="fill:rgb(1,1,1);fill-rule:nonzero;"/>
                        <path d="M60.969,4.933L60.692,4.655L60.483,4.863L60.831,5.245L60.934,5.35L61.039,5.245L61.559,4.829L61.351,4.585L60.969,4.933Z" style="fill:rgb(1,1,1);fill-rule:nonzero;"/>
                        <path d="M59.824,5.627C59.572,5.73 59.06,5.697 59.06,5.697L58.157,5.697C58.133,5.518 57.921,5.469 57.706,5.489C57.491,5.509 57.279,5.595 57.255,5.697C57.204,5.902 56.907,5.94 56.907,5.94L55.761,6.044C55.658,6.351 55.048,6.561 54.997,6.356C54.886,5.906 54.235,6.915 54.893,7.12C55.548,7.326 56.212,7.12 56.212,7.12L56.351,6.808L58.886,6.877C59.089,6.672 59.163,6.356 59.163,6.356C59.163,6.356 59.779,6.149 60.031,6.252C60.285,6.354 60.077,5.525 59.824,5.627Z" style="fill:rgb(1,1,1);fill-rule:nonzero;"/>
                        <path d="M54.442,8.196L54.442,7.641L54.234,7.433L54.025,6.704L53.366,6.496L52.706,6.774L52.012,7.225L51.248,7.329L50.866,7.78L52.463,7.954L52.775,8.44L53.921,8.544L54.685,9.342C55.342,9.547 55.505,9.214 55.101,8.856L54.442,8.196Z" style="fill:rgb(1,1,1);fill-rule:nonzero;"/>
                        <path d="M73.156,13.891L73.921,14.134C73.921,14.134 74.859,15.239 74.823,14.69C74.722,13.154 74,13.122 73.747,12.815C73.684,12.738 73.571,12.679 73.435,12.676C73.026,12.668 72.438,12.963 72.497,13.266C72.546,13.522 72.752,13.788 73.156,13.891Z" style="fill:rgb(1,1,1);fill-rule:nonzero;"/>
                        <path d="M57.914,13.439L57.636,13.3L57.428,13.752L57.706,13.891L57.914,13.439Z" style="fill:rgb(1,1,1);fill-rule:nonzero;"/>
                        <path d="M59.476,14.307L59.129,14.03C59.129,14.03 58.573,13.975 58.573,13.822C58.573,13.703 58.303,14.178 58.087,14.308C58.33,14.435 58.608,14.586 58.608,14.586C59.012,14.586 59.268,14.918 59.268,15.072C59.268,15.225 59.824,15.176 59.824,15.176L59.893,14.794L59.476,14.307Z" style="fill:rgb(1,1,1);fill-rule:nonzero;"/>
                        <path d="M56.942,14.203L56.873,14.203L56.351,14.134L56.351,14.446L56.768,14.481L57.081,15.002L57.324,14.828L56.976,14.272L56.942,14.203Z" style="fill:rgb(1,1,1);fill-rule:nonzero;"/>
                        <path d="M57.914,14.307C57.939,14.326 57.987,14.313 58.018,14.307C57.927,14.261 57.842,14.177 57.81,14.168C57.768,14.159 57.782,14.208 57.914,14.307Z" style="fill:rgb(1,1,1);fill-rule:nonzero;"/>
                        <path d="M45.449,16.356C45.5,16.509 46.024,16.544 46.074,16.391C46.124,16.237 46.319,15.939 45.866,15.939C45.412,15.939 45.497,15.677 45.345,15.522C45.269,15.446 44.995,15.409 44.72,15.418C44.444,15.427 44.18,15.466 44.199,15.557C44.249,15.812 44.65,16.147 44.65,16.147C44.65,16.147 45.399,16.202 45.449,16.356Z" style="fill:rgb(1,1,1);fill-rule:nonzero;"/>
                        <path d="M57.498,15.939L57.498,16.391L58.052,16.425L57.914,16.043L57.498,15.939Z" style="fill:rgb(1,1,1);fill-rule:nonzero;"/>
                        <path d="M63.226,20.835C62.974,20.835 62.501,20.519 62.601,20.314C62.703,20.109 61.733,19.932 61.733,19.932C61.733,19.932 60.876,19.1 61.177,19.203C61.48,19.305 61.351,18.856 61.351,18.856C61.351,18.856 60.739,18.941 60.587,18.891C60.435,18.839 60.483,18.37 60.483,18.37C60.483,18.37 60.131,18.313 59.962,18.335C59.905,18.342 59.893,18.331 59.893,18.37C59.893,18.523 60.071,18.55 60.17,18.856C60.273,19.163 60.236,19.656 60.691,19.758C61.144,19.861 61.229,19.97 61.281,20.175C61.331,20.38 61.906,20.418 61.906,20.418L62.288,20.626L63.503,21.668L63.503,21.251C63.503,21.251 63.478,20.835 63.226,20.835Z" style="fill:rgb(1,1,1);fill-rule:nonzero;"/>
                        <path d="M32.325,19.203L32.568,18.995L32.255,18.682L32.047,18.925L32.325,19.203Z" style="fill:rgb(1,1,1);fill-rule:nonzero;"/>
                        <path d="M41.734,28.508L41.421,28.23L41.213,28.473L41.526,28.751L41.734,28.508Z" style="fill:rgb(1,1,1);fill-rule:nonzero;"/>
                        <path d="M41.074,29.029C41.377,29.029 40.831,28.682 40.831,28.682C40.831,28.682 40.358,28.705 40.275,28.543L40.31,29.029L41.074,29.029Z" style="fill:rgb(1,1,1);fill-rule:nonzero;"/>
                        <path d="M73.503,28.578L73.538,29.063L73.85,29.029L73.816,28.543L73.503,28.578Z" style="fill:rgb(1,1,1);fill-rule:nonzero;"/>
                        <path d="M77.323,32.362L77.844,32.189C77.844,32.189 77.872,31.688 77.67,31.842C77.469,31.995 77.317,31.478 77.115,31.53C76.913,31.581 76.83,31.334 76.629,31.078C76.426,30.822 76.465,30.78 76.212,30.627C76.086,30.55 76.004,30.516 75.935,30.523C75.866,30.529 75.831,30.559 75.831,30.662C75.831,30.867 76.072,30.961 75.97,31.218C75.87,31.473 76.081,31.704 76.282,31.704C76.484,31.704 76.636,31.81 76.838,31.912C77.039,32.013 77.17,32.157 77.323,32.362Z" style="fill:rgb(1,1,1);fill-rule:nonzero;"/>
                        <path d="M78.747,35.591C78.747,35.744 79.059,35.036 79.059,35.036C78.806,34.831 78.607,34.342 78.607,34.342C78.607,34.342 78.33,33.645 78.33,33.543C78.33,33.44 77.996,33.316 77.844,33.265C77.693,33.214 77.428,32.779 77.428,32.779L76.837,32.814C76.988,33.019 77.288,33.165 77.288,33.369C77.288,33.574 77.193,33.734 77.497,33.786C77.799,33.837 77.987,33.738 78.087,33.994C78.188,34.25 78.206,34.657 78.156,34.862C78.105,35.067 78.182,35.383 78.434,35.383C78.686,35.383 78.747,35.438 78.747,35.591Z" style="fill:rgb(1,1,1);fill-rule:nonzero;"/>
                        <path d="M72.67,33.265L72.635,32.952L72.115,33.021L72.149,33.334L72.67,33.265Z" style="fill:rgb(1,1,1);fill-rule:nonzero;"/>
                        <rect x="72.948" y="33.334" width="0.312" height="0.243" style="fill:rgb(1,1,1);"/>
                        <path d="M72.809,37.223C72.809,37.223 72.183,37.391 71.628,37.084C71.074,36.777 71.735,36.667 71.836,36.667C71.939,36.667 72.386,36.298 72.184,36.042C71.982,35.786 72.184,35.316 72.184,35.521C72.184,35.726 72.742,35.848 72.843,35.695C72.944,35.542 72.853,35.085 72.601,34.931C72.349,34.777 73.045,34.666 72.843,34.41C72.642,34.153 72.531,33.854 72.531,33.854C72.531,33.854 72.234,34.267 71.629,34.062C71.629,34.062 71.55,35.002 71.247,35.208L70.518,35.208C70.518,35.208 70.68,35.471 70.83,35.625C70.982,35.779 71.323,36.081 70.97,36.285C70.616,36.489 71.039,36.458 71.039,36.458C71.039,36.458 70.972,37.515 70.518,37.361C70.065,37.209 69.928,37.92 69.928,38.125C69.928,38.33 71.699,38.408 71.421,38.125C71.269,37.972 71.629,37.639 71.629,37.639C71.629,37.639 72.836,37.743 73.087,37.743C73.339,37.743 73.552,37.686 73.399,37.431C73.248,37.175 72.809,37.223 72.809,37.223Z" style="fill:rgb(1,1,1);fill-rule:nonzero;"/>
                        <rect x="73.538" y="35.383" width="0.312" height="0.347" style="fill:rgb(1,1,1);"/>
                        <path d="M74.51,35.695L74.233,35.556L74.093,35.869L74.336,36.008L74.51,35.695Z" style="fill:rgb(1,1,1);fill-rule:nonzero;"/>
                        <path d="M80.413,40.104C80.161,40.053 80.274,39.306 80.274,39.306C80.274,39.306 80.503,38.334 80.1,38.334C79.697,38.334 80.004,37.827 79.753,37.674C79.5,37.52 79.645,36.802 79.544,36.598C79.443,36.393 79.45,36.161 79.197,36.008C79.166,35.989 79.143,35.968 79.128,35.973C79.015,36.009 79.226,36.577 79.093,36.667C78.942,36.77 78.828,36.965 78.676,37.118C78.525,37.272 78.988,37.485 78.988,37.639C78.988,37.792 79.092,38.542 79.092,38.542C79.092,38.542 79.459,38.719 79.509,38.924C79.56,39.129 79.495,39.532 79.648,39.584C79.798,39.635 80.097,39.831 79.995,40.035C79.894,40.241 79.891,40.66 79.891,40.66L80.099,41.111L80.516,41.354C80.517,41.354 80.666,40.156 80.413,40.104Z" style="fill:rgb(1,1,1);fill-rule:nonzero;"/>
                        <path d="M66.385,37.015L66.42,37.327L66.907,37.258L66.872,36.945L66.385,37.015Z" style="fill:rgb(1,1,1);fill-rule:nonzero;"/>
                        <path d="M58.886,37.882C58.886,38.036 59.24,38.194 59.442,38.194C59.643,38.194 60.171,37.777 60.171,37.777C60.171,37.777 60.442,37.067 60.24,37.117C60.039,37.168 59.631,37.459 59.581,37.152C59.554,37 59.39,36.98 59.233,36.98C59.076,36.98 58.921,37.015 58.921,37.015L58.123,37.119L58.053,37.466L58.609,37.535C58.608,37.535 58.886,37.729 58.886,37.882Z" style="fill:rgb(1,1,1);fill-rule:nonzero;"/>
                        <g transform="matrix(-0.2234,-0.9747,0.9747,-0.2234,31.9195,100.259)">
                            <rect x="55.668" y="37.254" width="0.463" height="0.32" style="fill:rgb(1,1,1);"/>
                        </g>
                        <path d="M56.56,37.57L57.67,37.535L57.67,37.223L56.56,37.258L56.56,37.57Z" style="fill:rgb(1,1,1);fill-rule:nonzero;"/>
                        <rect x="48.192" y="37.327" width="0.382" height="0.312" style="fill:rgb(1,1,1);"/>
                        <path d="M50.727,37.674L51.074,37.744L51.143,37.431L50.796,37.362L50.727,37.674Z" style="fill:rgb(1,1,1);fill-rule:nonzero;"/>
                        <g transform="matrix(-0.9951,-0.0992,0.0992,-0.9951,99.158,80.3497)">
                            <rect x="51.402" y="37.552" width="0.349" height="0.314" style="fill:rgb(1,1,1);"/>
                        </g>
                        <path d="M47.706,37.674L47.359,37.64L47.29,37.952L47.671,37.987L47.706,37.674Z" style="fill:rgb(1,1,1);fill-rule:nonzero;"/>
                        <path d="M55.484,37.709L55.587,37.987L55.761,37.917L55.657,37.64L55.484,37.709Z" style="fill:rgb(1,1,1);fill-rule:nonzero;"/>
                        <path d="M67.878,37.778L67.705,38.125L67.983,38.265L68.157,37.882L67.878,37.778Z" style="fill:rgb(1,1,1);fill-rule:nonzero;"/>
                        <rect x="52.116" y="37.952" width="0.416" height="0.278" style="fill:rgb(1,1,1);"/>
                        <path d="M47.428,38.091L47.012,37.987L46.942,38.299L47.324,38.403L47.428,38.091Z" style="fill:rgb(1,1,1);fill-rule:nonzero;"/>
                        <path d="M46.907,38.716L46.873,38.403L46.56,38.473L46.63,38.785L46.907,38.716Z" style="fill:rgb(1,1,1);fill-rule:nonzero;"/>
                        <path d="M52.567,38.438L52.567,38.785L52.879,38.785L52.844,38.403L52.567,38.438Z" style="fill:rgb(1,1,1);fill-rule:nonzero;"/>
                        <path d="M68.191,38.612C67.939,38.663 67.99,38.842 68.191,39.098L68.816,39.029C68.816,39.029 69.265,38.8 69.164,38.647C69.112,38.57 68.942,38.543 68.747,38.543C68.552,38.543 68.317,38.586 68.191,38.612Z" style="fill:rgb(1,1,1);fill-rule:nonzero;"/>
                        <path d="M80.864,43.785L80.899,43.403L80.621,43.368L80.551,43.75L80.864,43.785Z" style="fill:rgb(1,1,1);fill-rule:nonzero;"/>
                        <path d="M80.691,44.861L80.413,44.723L80.274,45.035L80.551,45.174L80.691,44.861Z" style="fill:rgb(1,1,1);fill-rule:nonzero;"/>
                        <path d="M46.178,47.778L45.623,47.708L45.519,47.952L45.275,47.952L45.206,48.368L45.519,48.368L45.553,48.681L45.345,48.889L45.275,49.132L44.859,49.236L43.956,50.104L43.887,50.521L43.644,50.902L43.331,51.667L42.29,51.701L42.081,52.639L42.22,53.402L43.123,53.75L43.227,53.229L43.54,53.09L43.609,52.569L43.783,52.222L44.095,51.875L44.199,51.458L44.686,51.146L45.31,51.042L45.553,50.729L45.658,50.104L45.692,49.653L45.9,49.34L46.525,49.097L46.525,48.125L46.213,48.125L46.178,47.778Z" style="fill:rgb(1,1,1);fill-rule:nonzero;"/>
                        <path d="M77.218,48.333L77.774,48.438L77.809,48.125L77.253,48.021L77.218,48.333Z" style="fill:rgb(1,1,1);fill-rule:nonzero;"/>
                        <path d="M76.003,48.472L75.83,48.542L75.482,48.75L75.135,48.542L74.997,48.819L75.378,49.062L75.448,49.132L75.552,49.062L75.83,48.889L75.865,48.993L76.177,48.889L76.073,48.646L76.003,48.472Z" style="fill:rgb(1,1,1);fill-rule:nonzero;"/>
                        <path d="M54.268,53.507C54.521,53.661 54.941,53.298 54.685,53.125C53.929,52.612 53.984,51.954 53.782,51.493C53.739,51.393 53.658,51.298 53.574,51.285C53.49,51.271 53.407,51.358 53.331,51.562L53.331,52.221C53.331,52.222 54.016,53.353 54.268,53.507Z" style="fill:rgb(1,1,1);fill-rule:nonzero;"/>
                        <path d="M27.672,55.694C27.722,56.256 28.123,55.346 28.123,55.346L28.123,51.874L27.185,51.77L27.254,52.118L27.497,52.118C27.9,52.835 27.566,54.583 27.566,54.583C27.566,54.583 26.939,54.611 26.837,54.306C26.737,53.998 26.496,54.985 26.698,55.139C26.902,55.291 27.623,55.131 27.672,55.694Z" style="fill:rgb(1,1,1);fill-rule:nonzero;"/>
                        <path d="M51.109,54.166C51.217,54.613 51.219,53.455 51.421,53.507C51.622,53.558 51.455,52.778 51.455,52.778L50.553,53.438C51.006,53.489 51.056,53.963 51.109,54.166Z" style="fill:rgb(1,1,1);fill-rule:nonzero;"/>
                        <path d="M77.392,54.688C77.316,54.458 77.106,54.358 76.871,54.376C76.481,54.404 76.038,54.71 76.177,54.897C76.48,55.306 76.982,55.088 77.184,55.14C77.385,55.189 77.594,55.302 77.392,54.688Z" style="fill:rgb(1,1,1);fill-rule:nonzero;"/>
                        <path d="M29.026,55.104C28.908,55.104 28.818,55.194 28.818,55.313C28.818,55.432 28.908,55.556 29.026,55.556C29.144,55.556 29.234,55.432 29.234,55.313C29.234,55.194 29.145,55.104 29.026,55.104Z" style="fill:rgb(1,1,1);fill-rule:nonzero;"/>
                        <path d="M28.297,57.604L28.401,57.118L28.054,56.979L28.124,56.215L28.401,56.146L28.471,55.799L27.707,56.319L27.186,56.007L27.186,57.222L28.02,58.298L28.297,57.604Z" style="fill:rgb(1,1,1);fill-rule:nonzero;"/>
                        <path d="M47.116,57.083L46.665,57.118L46.734,57.847L47.012,58.09L47.567,58.264C47.567,58.264 48.351,58.044 48.4,57.431L47.219,57.396L47.116,57.083Z" style="fill:rgb(1,1,1);fill-rule:nonzero;"/>
                        <path d="M28.505,58.923L28.158,58.958L28.124,59.375L28.505,59.444L28.505,58.923Z" style="fill:rgb(1,1,1);fill-rule:nonzero;"/>
                        <path d="M91.732,59.409C91.675,59.386 91.628,59.371 91.558,59.375C91.348,59.386 91.107,59.489 90.968,59.583L91.107,59.826C91.297,59.695 91.571,59.659 91.628,59.687C91.624,59.684 91.596,59.659 91.593,59.652L91.905,59.617C91.89,59.52 91.823,59.449 91.732,59.409Z" style="fill:rgb(1,1,1);fill-rule:nonzero;"/>
                        <path d="M28.853,60.104C28.853,59.984 28.763,59.896 28.645,59.896C28.527,59.896 28.437,59.983 28.437,60.104C28.437,60.223 28.527,60.313 28.645,60.313C28.763,60.313 28.853,60.223 28.853,60.104Z" style="fill:rgb(1,1,1);fill-rule:nonzero;"/>
                        <path d="M28.992,60.972C28.874,60.972 28.784,61.061 28.784,61.18C28.784,61.3 28.874,61.389 28.992,61.389C29.11,61.389 29.235,61.3 29.235,61.18C29.235,61.061 29.11,60.972 28.992,60.972Z" style="fill:rgb(1,1,1);fill-rule:nonzero;"/>
                        <path d="M47.845,62.465C48.071,62.426 48.213,62.33 48.401,62.291C48.591,62.252 48.673,61.937 48.748,61.632C48.824,61.324 48.679,61.18 48.679,61.18C48.679,61.18 48.494,61.488 48.193,61.18C48.155,61.141 48.09,61.113 48.054,61.111C47.799,61.099 47.598,61.882 47.498,62.084C47.498,62.083 47.618,62.504 47.845,62.465Z" style="fill:rgb(1,1,1);fill-rule:nonzero;"/>
                        <path d="M27.638,61.944L28.054,61.874L28.054,61.527L27.638,61.597L27.638,61.944Z" style="fill:rgb(1,1,1);fill-rule:nonzero;"/>
                        <path d="M94.996,64.201C94.989,64.116 94.986,63.974 94.927,63.853L94.649,63.992C94.683,64.06 94.677,64.131 94.684,64.201C94.692,64.29 94.703,64.413 94.788,64.478C94.843,64.519 94.915,64.528 94.997,64.513L94.962,64.201C94.986,64.205 94.99,64.248 94.997,64.27C94.991,64.26 94.998,64.227 94.996,64.201Z" style="fill:rgb(1,1,1);fill-rule:nonzero;"/>
                        <path d="M94.335,64.514C94.412,64.825 94.505,65.125 94.509,65.138L94.821,65.034C94.819,65.032 94.685,64.739 94.613,64.443L94.335,64.514Z" style="fill:rgb(1,1,1);fill-rule:nonzero;"/>
                        <rect x="70.969" y="64.722" width="0.347" height="0.972" style="fill:rgb(1,1,1);"/>
                        <path d="M60.206,65.242L60.067,64.999L59.65,65.242L59.824,65.485L60.206,65.242Z" style="fill:rgb(1,1,1);fill-rule:nonzero;"/>
                        <path d="M92.913,65.693C92.889,65.934 92.952,66.236 93.19,66.284L93.259,65.972C93.236,65.951 93.213,65.841 93.224,65.729L92.913,65.693Z" style="fill:rgb(1,1,1);fill-rule:nonzero;"/>
                        <path d="M92.773,66.249C92.682,66.256 92.535,66.354 92.426,66.423C92.123,66.615 92.237,67.379 92.426,67.187C92.614,66.997 92.838,67.207 92.877,66.631C92.896,66.343 92.865,66.243 92.773,66.249Z" style="fill:rgb(1,1,1);fill-rule:nonzero;"/>
                        <path d="M54.094,67.465L54.442,66.909L54.129,66.805L53.782,67.048L53.921,67.222L54.094,67.465Z" style="fill:rgb(1,1,1);fill-rule:nonzero;"/>
                        <path d="M80.274,70.381L80.76,70.416L80.794,69.999L80.308,69.93L80.274,70.381Z" style="fill:rgb(1,1,1);fill-rule:nonzero;"/>
                        <path d="M79.892,71.006L79.788,71.318C79.812,71.327 79.857,71.33 79.892,71.353L79.961,71.63C79.939,71.665 79.911,71.677 79.892,71.699L80.1,71.907C80.262,71.727 80.316,71.555 80.274,71.386C80.207,71.128 79.924,71.017 79.892,71.006Z" style="fill:rgb(1,1,1);fill-rule:nonzero;"/>
                        <path d="M42.602,80.866L42.29,81.109L42.151,81.248L42.29,81.353L42.637,81.631L42.811,81.353L42.637,81.214L42.776,81.109L42.602,80.866Z" style="fill:rgb(1,1,1);fill-rule:nonzero;"/>
                        <path d="M46.491,85.276L46.734,85.033L46.873,84.895L46.699,84.79L46.178,84.547L46.04,84.79L46.352,84.964L46.248,85.067L46.491,85.276Z" style="fill:rgb(1,1,1);fill-rule:nonzero;"/>
                        <path d="M20.659,87.116L21.041,87.741L21.11,88.192L21.596,88.366L21.805,88.644L22.152,88.471L21.909,87.776L21.249,87.221L20.659,87.116Z" style="fill:rgb(1,1,1);fill-rule:nonzero;"/>
                    </g>
                </g>
            </g>
        </g>
    </g>
</svg>
